{
    "asset" : {
        "generator" : "Khronos glTF Blender I/O v1.6.16",
        "version" : "2.0"
    },
    "scene" : 0,
    "scenes" : [
        {
            "name" : "Scene",
            "nodes" : [
                0
            ]
        }
    ],
    "nodes" : [
        {
            "mesh" : 0,
            "name" : "BirchTree_3"
        }
    ],
    "materials" : [
        {
            "doubleSided" : true,
            "name" : "White",
            "pbrMetallicRoughness" : {
                "baseColorFactor" : [
                    0.6554416418075562,
                    0.685953676700592,
                    0.6257363557815552,
                    1
                ],
                "metallicFactor" : 0,
                "roughnessFactor" : 0.5
            }
        },
        {
            "doubleSided" : true,
            "name" : "Black",
            "pbrMetallicRoughness" : {
                "baseColorFactor" : [
                    0.05496654286980629,
                    0.05496654286980629,
                    0.05496654286980629,
                    1
                ],
                "metallicFactor" : 0,
                "roughnessFactor" : 0.5
            }
        },
        {
            "doubleSided" : true,
            "name" : "Green",
            "pbrMetallicRoughness" : {
                "baseColorFactor" : [
                    0.08744194358587265,
                    0.15232062339782715,
                    0.05986013635993004,
                    1
                ],
                "metallicFactor" : 0,
                "roughnessFactor" : 0.5
            }
        },
        {
            "doubleSided" : true,
            "name" : "DarkGreen",
            "pbrMetallicRoughness" : {
                "baseColorFactor" : [
                    0.05316007137298584,
                    0.09083576500415802,
                    0.03697298839688301,
                    1
                ],
                "metallicFactor" : 0,
                "roughnessFactor" : 0.5
            }
        }
    ],
    "meshes" : [
        {
            "name" : "Cube.065",
            "primitives" : [
                {
                    "attributes" : {
                        "POSITION" : 0,
                        "NORMAL" : 1
                    },
                    "indices" : 2,
                    "material" : 0
                },
                {
                    "attributes" : {
                        "POSITION" : 3,
                        "NORMAL" : 4
                    },
                    "indices" : 5,
                    "material" : 1
                },
                {
                    "attributes" : {
                        "POSITION" : 6,
                        "NORMAL" : 7
                    },
                    "indices" : 8,
                    "material" : 2
                },
                {
                    "attributes" : {
                        "POSITION" : 9,
                        "NORMAL" : 10
                    },
                    "indices" : 11,
                    "material" : 3
                }
            ]
        }
    ],
    "accessors" : [
        {
            "bufferView" : 0,
            "componentType" : 5126,
            "count" : 2592,
            "max" : [
                0.4626297056674957,
                3.1091907024383545,
                0.2012043446302414
            ],
            "min" : [
                -0.26000165939331055,
                -0.07202761620283127,
                -0.6083704829216003
            ],
            "type" : "VEC3"
        },
        {
            "bufferView" : 1,
            "componentType" : 5126,
            "count" : 2592,
            "type" : "VEC3"
        },
        {
            "bufferView" : 2,
            "componentType" : 5123,
            "count" : 3888,
            "type" : "SCALAR"
        },
        {
            "bufferView" : 3,
            "componentType" : 5126,
            "count" : 150,
            "max" : [
                0.36980921030044556,
                2.8373184204101562,
                0.19932188093662262
            ],
            "min" : [
                -0.18734210729599,
                0.012368390336632729,
                -0.45076096057891846
            ],
            "type" : "VEC3"
        },
        {
            "bufferView" : 4,
            "componentType" : 5126,
            "count" : 150,
            "type" : "VEC3"
        },
        {
            "bufferView" : 5,
            "componentType" : 5123,
            "count" : 150,
            "type" : "SCALAR"
        },
        {
            "bufferView" : 6,
            "componentType" : 5126,
            "count" : 512,
            "max" : [
                0.5938462615013123,
                4.021173000335693,
                0.6091697216033936
            ],
            "min" : [
                -0.7607650756835938,
                1.729095220565796,
                -1.1283049583435059
            ],
            "type" : "VEC3"
        },
        {
            "bufferView" : 7,
            "componentType" : 5126,
            "count" : 512,
            "type" : "VEC3"
        },
        {
            "bufferView" : 8,
            "componentType" : 5123,
            "count" : 768,
            "type" : "SCALAR"
        },
        {
            "bufferView" : 9,
            "componentType" : 5126,
            "count" : 256,
            "max" : [
                0.8140110969543457,
                2.6976394653320312,
                0.6420614719390869
            ],
            "min" : [
                -0.2532714307308197,
                1.301911473274231,
                -0.3772020637989044
            ],
            "type" : "VEC3"
        },
        {
            "bufferView" : 10,
            "componentType" : 5126,
            "count" : 256,
            "type" : "VEC3"
        },
        {
            "bufferView" : 11,
            "componentType" : 5123,
            "count" : 384,
            "type" : "SCALAR"
        }
    ],
    "bufferViews" : [
        {
            "buffer" : 0,
            "byteLength" : 31104,
            "byteOffset" : 0
        },
        {
            "buffer" : 0,
            "byteLength" : 31104,
            "byteOffset" : 31104
        },
        {
            "buffer" : 0,
            "byteLength" : 7776,
            "byteOffset" : 62208
        },
        {
            "buffer" : 0,
            "byteLength" : 1800,
            "byteOffset" : 69984
        },
        {
            "buffer" : 0,
            "byteLength" : 1800,
            "byteOffset" : 71784
        },
        {
            "buffer" : 0,
            "byteLength" : 300,
            "byteOffset" : 73584
        },
        {
            "buffer" : 0,
            "byteLength" : 6144,
            "byteOffset" : 73884
        },
        {
            "buffer" : 0,
            "byteLength" : 6144,
            "byteOffset" : 80028
        },
        {
            "buffer" : 0,
            "byteLength" : 1536,
            "byteOffset" : 86172
        },
        {
            "buffer" : 0,
            "byteLength" : 3072,
            "byteOffset" : 87708
        },
        {
            "buffer" : 0,
            "byteLength" : 3072,
            "byteOffset" : 90780
        },
        {
            "buffer" : 0,
            "byteLength" : 768,
            "byteOffset" : 93852
        }
    ],
    "buffers" : [
        {
            "byteLength" : 94620,
            "uri" : "data:application/octet-stream;base64,"
        }
    ]
}
